# AST/ASF file generated using VICON BodyLanguage
# -----------------------------------------------
:version 1.10
:name VICON
:units
  mass 1.0
  length 0.45
  angle deg
:documentation
   .ast/.asf automatically generated from VICON data using
   VICON BodyBuilder and BodyLanguage model FoxedUp or BRILLIANT.MOD
:root
   order TX TY TZ RX RY RZ
   axis XYZ
   position 0 0 0  
   orientation 0 0 0 
:bonedata
  begin
     id 1 
     name lhipjoint
     direction 0.645893 -0.654526 0.392961 
     length 2.38111 
     axis 0 0 0  XYZ
  end
  begin
     id 2 
     name lfemur
     direction 0.34202 -0.939693 0  
     length 6.6822  
     axis 0 0 20  XYZ
    dof rx ry rz
    limits (-160.0 20.0)
           (-70.0 70.0)
           (-60.0 70.0)
  end
  begin
     id 3 
     name ltibia
     direction 0.34202 -0.939693 0   
     length 6.93904   
     axis 0 0 20   XYZ
    dof rx
    limits (-10.0 170.0)
  end
  begin
     id 4 
     name lfoot
     direction 0.0694967 -0.190941 0.979138   
     length 2.13616   
     axis -90 7.62852e-016 20   XYZ
    dof rx rz
    limits (-45.0 90.0)
           (-70.0 20.0)
  end
  begin
     id 5 
     name ltoes
     direction 1.535e-011 -4.2202e-011 1   
     length 1.07536   
     axis -90 7.62852e-016 20   XYZ
    dof rx
    limits (-90.0 20.0)
  end
  begin
     id 6 
     name rhipjoint
     direction -0.700219 -0.612087 0.367481   
     length 2.54621  
     axis 0 0 0  XYZ 
  end
  begin
     id 7 
     name rfemur
     direction -0.34202 -0.939693 0   
     length 6.55353   
     axis 0 0 -20   XYZ
    dof rx ry rz
    limits (-160.0 20.0)
           (-70.0 70.0)
           (-70.0 60.0)
  end
  begin
     id 8 
     name rtibia
     direction -0.34202 -0.939693 0   
     length 6.8736   
     axis 0 0 -20   XYZ
    dof rx
    limits (-10.0 170.0)
 end
 begin
     id 9 
     name rfoot
     direction -0.0679995 -0.186827 0.980037   
     length 2.1218  
     axis -90 -7.62852e-016 -20   XYZ
    dof rx rz
    limits (-45.0 90.0)
           (-20.0 70.0)
  end
  begin
     id 10 
     name rtoes
     direction -1.53589e-011 -4.21772e-011 1   
     length 1.06864   
     axis -90 -7.62852e-016 -20   XYZ
    dof rx
    limits (-90.0 20.0)
  end
  begin
     id 11 
     name lowerback
     direction -0.0416607 0.996347 -0.0745409   
     length 2.12205   
     axis 0 0 0   XYZ
    dof rx ry rz
    limits (-20.0 45.0)
           (-30.0 30.0)
           (-30.0 30.0)
  end
  begin
     id 12 
     name upperback
     direction -0.000153993 0.999276 -0.0380568   
     length 2.12759   
     axis 0 0 0   XYZ
    dof rx ry rz
    limits (-20.0 45.0)
           (-30.0 30.0)
           (-30.0 30.0)
  end
  begin
     id 13 
     name thorax
     direction 0.0187671 0.999821 -0.00241421   
     length 2.13704   
     axis 0 0 0   XYZ
    dof rx ry rz
    limits (-20.0 45.0)
           (-30.0 30.0)
           (-30.0 30.0)
  end
  begin
     id 14 
     name lowerneck
     direction 0.0268157 0.964865 0.261374   
     length 1.65253   
     axis 0 0 0   XYZ
    dof rx ry rz
    limits (-20.0 45.0)
           (-30.0 30.0)
           (-30.0 30.0)
  end
  begin
     id 15 
     name upperneck
     direction 0.00263774 0.939908 -0.341418   
     length 1.72375   
     axis 0 0 0   XYZ
    dof rx ry rz
    limits (-20.0 45.0)
           (-30.0 30.0)
           (-30.0 30.0)
  end
  begin
     id 16
     name head
     direction -0.00526001 0.989001 -0.147818  
     length 1.74878  
     axis 0 0 0   XYZ
    dof rx ry rz
    limits (-20.0 45.0)
           (-30.0 30.0)
           (-30.0 30.0)
  end
  begin
     id 17 
     name lclavicle
     direction 0.881214 0.461162 -0.103884  
     length 3.25108  
     axis 0 0 0   XYZ
    dof ry rz
    limits (-20.0 10.0)
           (0.0 20.0)
  end
  begin
     id 18 
     name lhumerus
     direction 1 -4.4899e-011 3.38092e-027   
     length 4.87408   
     axis 180 -30 -90   XYZ
    dof rx ry rz
    limits (-60.0 90.0)
           (-90.0 90.0)
           (-90.0 90.0)
  end
  begin
     id 19
     name lradius
     direction 1 -4.48931e-011 9.96288e-027   
     length 2.76729   
     axis 180 -30 -90   XYZ
    dof rx
    limits (-10.0 170.0)
  end
  begin
     id 20
     name lwrist
     direction 1 -4.4896e-011 1.50617e-026   
     length 1.38364   
     axis -9.31234e-015 90 90   XYZ
    dof ry
    limits (-180.0 0.0)
 end
  begin
     id 21 
     name lhand
     direction 1 -4.49038e-011 3.01286e-026   
     length 0.98922   
     axis -1.92217e-014 90 90   XYZ
    dof rx rz
    limits (-90.0 90.0)
           (-45.0 45.0)
  end
  begin
     id 22 
     name lfingers
     direction 1 -4.49051e-011 6.02588e-026   
     length 0.797535   
     axis -3.84436e-014 90 90   XYZ
    dof rx
    limits (0.0 90.0)
  end
  begin
     id 23
     name lthumb
     direction 0.707107 -6.34901e-011 0.707107   
     length 1.14511   
     axis -90 45 2.19363e-014   XYZ
    dof rx rz
    limits (-45.0 45.0)
           (-45.0 45.0)
  end
  begin
     id 24 
     name rclavicle
     direction -0.893894 0.441652 -0.0767889   
     length 3.29361  
     axis 0 0 0   XYZ 
    dof ry rz
    limits (-10.0 20.0)
           (-20.0 0.0)
  end
  begin
     id 25 
     name rhumerus
     direction -1 -4.48945e-011 8.0491e-028  
     length 4.71404   
     axis 180 30 90   XYZ
    dof rx ry rz
    limits (-90.0 60.0)
           (-90.0 90.0)
           (-90.0 90.0)
  end
  begin
     id 26 
     name rradius
     direction -1 -4.48986e-011 9.27795e-027   
     length 2.83468   
     axis 180 30 90   XYZ
    dof rx
    limits (-10.0 170.0)
  end
  begin
     id 27 
     name rwrist
     direction -1 -4.49029e-011 1.5064e-026   
     length 1.41734   
     axis -9.31234e-015 -90 -90   XYZ
    dof ry
    limits (-180.0 0.0)
  end
  begin
     id 28
     name rhand
     direction -1 -4.48857e-011 3.01165e-026   
     length 0.868195   
     axis -1.92217e-014 -90 -90   XYZ
    dof rx rz
    limits (-90.0 90.0)
           (-45.0 45.0)
  end
  begin
     id 29
     name rfingers
     direction -1 -4.49048e-011 6.02585e-026   
     length 0.699961   
     axis -3.84436e-014 -90 -90   XYZ
    dof rx
    limits (0.0 90.0)
  end
  begin
     id 30
     name rthumb
     direction -0.707107 -6.34854e-011 0.707107   
     length 1.00501   
     axis -90 -45 -2.19363e-014   XYZ
    dof rx rz
    limits (-45.0 45.0)
           (-45.0 45.0)
  end
:hierarchy
  begin
    root lhipjoint rhipjoint lowerback
    lhipjoint lfemur
    lfemur ltibia
    ltibia lfoot
    lfoot ltoes
    rhipjoint rfemur
    rfemur rtibia
    rtibia rfoot
    rfoot rtoes
    lowerback upperback
    upperback thorax
    thorax lowerneck lclavicle rclavicle
    lowerneck upperneck
    upperneck head
    lclavicle lhumerus
    lhumerus lradius
    lradius lwrist
    lwrist lhand lthumb
    lhand lfingers
    rclavicle rhumerus
    rhumerus rradius
    rradius rwrist
    rwrist rhand rthumb
    rhand rfingers
  end

#!OML:ASF H:\ManfredObstacles\Project 1\Capture day 2\Session 1\male.ASF
:FULLY-SPECIFIED
:DEGREES
132
root 3.02484 19.8648 -1.83774 -170.679 -34.179 171.688
lowerback 1.58301 -7.5405 -14.187
upperback 2.06672 -10.2983 -1.64937
thorax 3.46939 -5.50925 5.68936
lowerneck -26.4201 1.34704 -3.30922
upperneck 48.4941 -8.75903 5.87722
head 31.7166 -5.10874 0.587181
rclavicle 1.65488e-013 -5.56597e-014
rhumerus -71.3756 4.85152 -18.1744
rradius 55.5551
rwrist 4.96252
rhand -6.00996 -6.5665
rfingers 7.12502
rthumb 19.8228 -35.5756
lclavicle 1.65488e-013 -5.56597e-014
lhumerus -12.0138 -40.2946 13.7541
lradius 90.7255
lwrist -18.8844
lhand -16.6028 1.86745
lfingers 7.12502
lthumb 9.61859 31.6279
rfemur -25.1711 10.1375 -8.74824
rtibia -5.24792e-014
rfoot 36.9855 -30.9146
rtoes -3.86886
lfemur -8.82023 -0.411234 14.5506
ltibia 114.404
lfoot 11.3054 0.697036
ltoes 15.8426
133
root 3.06379 19.711 -2.17605 -170.676 -34.4098 171.469
lowerback 1.36845 -7.32357 -14.4084
upperback 2.03319 -9.98819 -1.90709
thorax 3.47856 -5.35986 5.53922
lowerneck -26.3795 1.14903 -3.51817
upperneck 48.4804 -9.10176 6.07915
head 31.8232 -5.24496 0.656434
rclavicle 3.27995e-014 5.1684e-014
rhumerus -73.0593 5.24405 -19.5464
rradius 56.3877
rwrist 4.69245
rhand -5.81051 -6.27055
rfingers 7.12502
rthumb 20.0145 -35.2598
lclavicle 3.27995e-014 5.1684e-014
lhumerus -13.2492 -40.5951 13.4005
lradius 90.8377
lwrist -18.9484
lhand -16.6373 1.77371
lfingers 7.12502
lthumb 9.58529 31.5357
rfemur -24.3057 10.6533 -8.30289
rtibia 4.13472e-014
rfoot 36.8843 -31.3225
rtoes -3.5068
lfemur -9.65344 -1.62393 16.1351
ltibia 116.897
lfoot 9.65717 0.201645
ltoes 15.4546
134
root 3.10101 19.5444 -2.51091 -170.661 -34.6464 171.214
lowerback 1.188 -7.10092 -14.6458
upperback 2.02401 -9.67482 -2.1513
thorax 3.4999 -5.21231 5.4147
lowerneck -26.3839 0.939368 -3.75112
upperneck 48.4528 -9.40763 6.257
head 31.9327 -5.3699 0.728243
rclavicle 3.28989e-014 -1.66979e-014
rhumerus -74.7198 5.60166 -21.0701
rradius 57.3577
rwrist 4.41358
rhand -5.63781 -5.93828
rfingers 7.12502
rthumb 20.1805 -34.9101
lclavicle 3.28989e-014 -1.66979e-014
lhumerus -14.5381 -40.7594 13.2024
lradius 90.897
lwrist -18.9797
lhand -16.7022 1.7998
lfingers 7.12502
lthumb 9.52272 31.5646
rfemur -23.4177 11.1416 -7.89016
rtibia -3.18055e-015
rfoot 37.101 -31.0454
rtoes -3.48008
lfemur -10.565 -3.01578 17.5516
ltibia 119.256
lfoot 8.00309 -0.10725
ltoes 15.0278
135
root 3.13698 19.3653 -2.84197 -170.623 -34.8912 170.919
lowerback 1.04046 -6.87207 -14.8984
upperback 2.03421 -9.35781 -2.38743
thorax 3.52705 -5.06568 5.30995
lowerneck -26.38 0.740841 -3.99298
upperneck 48.4179 -9.69397 6.43234
head 32.0708 -5.49331 0.80756
rclavicle -5.47652e-014 3.10104e-014
rhumerus -76.3559 5.88447 -22.7151
rradius 58.4697
rwrist 4.15692
rhand -5.45961 -5.61621
rfingers 7.12502
rthumb 20.3518 -34.5698
lclavicle -5.47652e-014 3.10104e-014
lhumerus -15.8711 -40.8001 13.1703
lradius 90.9093
lwrist -18.9557
lhand -16.7513 1.93071
lfingers 7.12502
lthumb 9.47528 31.6977
rfemur -22.5196 11.5955 -7.51728
rtibia 9.54166e-015
rfoot 37.6852 -30.1379
rtoes -3.78764
lfemur -11.5828 -4.57231 18.7964
ltibia 121.501
lfoot 6.33232 -0.193975
ltoes 14.6361
136
root 3.17178 19.1745 -3.16991 -170.557 -35.1518 170.597
lowerback 0.899218 -6.64274 -15.1591
upperback 2.06784 -9.03849 -2.60357
thorax 3.58028 -4.92156 5.22905
lowerneck -26.403 0.534994 -4.25463
upperneck 48.3748 -9.94977 6.5839
head 32.2167 -5.60894 0.886409
rclavicle -3.53837e-014 -4.13472e-014
rhumerus -77.9425 6.05647 -24.438
rradius 59.7132
rwrist 3.94991
rhand -5.27677 -5.30783
rfingers 7.12502
rthumb 20.5275 -34.2426
lclavicle -3.53837e-014 -4.13472e-014
lhumerus -17.2538 -40.7174 13.3333
lradius 90.8926
lwrist -18.8448
lhand -16.7925 2.14371
lfingers 7.12502
lthumb 9.43557 31.9125
rfemur -21.6116 12.0075 -7.1663
rtibia 6.36111e-014
rfoot 38.5923 -28.7915
rtoes -4.35241
lfemur -12.7231 -6.2816 19.8833
ltibia 123.638
lfoot 4.64221 -0.0125229
ltoes 14.2121
137
root 3.20579 18.9724 -3.49408 -170.448 -35.4336 170.236
lowerback 0.774849 -6.40956 -15.4151
upperback 2.112 -8.71591 -2.81458
thorax 3.63456 -4.77709 5.15303
lowerneck -26.4424 0.322635 -4.5055
upperneck 48.3302 -10.1938 6.70559
head 32.361 -5.71629 0.947166
rclavicle 5.1684e-014 1.90833e-014
rhumerus -79.4835 6.09004 -26.2092
rradius 61.0527
rwrist 3.85928
rhand -5.11425 -4.97741
rfingers 7.12502
rthumb 20.6836 -33.8952
lclavicle 5.1684e-014 1.90833e-014
lhumerus -18.6494 -40.5328 13.6769
lradius 90.8608
lwrist -18.6244
lhand -16.7829 2.39547
lfingers 7.12502
lthumb 9.44481 32.1638
rfemur -20.6944 12.3674 -6.84733
rtibia -1.27222e-014
rfoot 39.7734 -27.2812
rtoes -4.92831
lfemur -14.008 -8.13691 20.7981
ltibia 125.676
lfoot 2.96468 0.450678
ltoes 13.6404
138
root 3.23896 18.7599 -3.8142 -170.284 -35.7451 169.838
lowerback 0.655329 -6.18378 -15.665
upperback 2.16186 -8.40262 -3.01476
thorax 3.69483 -4.63824 5.08444
lowerneck -26.4497 0.101355 -4.75152
upperneck 48.2723 -10.3994 6.79946
head 32.4076 -5.80526 1.00454
rclavicle -6.26172e-015 5.1684e-014
rhumerus -80.9294 5.96616 -28.0048
rradius 62.4728
rwrist 3.82043
rhand -4.94668 -4.71284
rfingers 7.12502
rthumb 20.8446 -33.6131
lclavicle -6.26172e-015 5.1684e-014
lhumerus -20.0714 -40.2591 14.2266
lradius 90.8233
lwrist -18.324
lhand -16.7304 2.65577
lfingers 7.12502
lthumb 9.49545 32.4218
rfemur -19.7642 12.6629 -6.55633
rtibia -7.95139e-015
rfoot 41.206 -25.7506
rtoes -5.41809
lfemur -15.4493 -10.1412 21.5214
ltibia 127.619
lfoot 1.36449 1.20122
ltoes 12.8512
139
root 3.27166 18.5371 -4.12953 -170.063 -36.0789 169.411
lowerback 0.544018 -5.95932 -15.8941
upperback 2.21453 -8.09131 -3.20449
thorax 3.75234 -4.50027 5.01684
lowerneck -26.4885 -0.128543 -4.96511
upperneck 48.2063 -10.5677 6.83902
head 32.4105 -5.86875 1.03213
rclavicle 1.43224e-013 4.77083e-015
rhumerus -82.2487 5.66627 -29.8013
rradius 63.8838
rwrist 3.88549
rhand -4.81807 -4.44258
rfingers 7.12502
rthumb 20.9682 -33.3292
lclavicle 1.43224e-013 4.77083e-015
lhumerus -21.4832 -39.9146 14.9859
lradius 90.7893
lwrist -17.9345
lhand -16.6417 2.90592
lfingers 7.12502
lthumb 9.58106 32.6681
rfemur -18.8202 12.8997 -6.28562
rtibia -1.59028e-015
rfoot 42.8583 -24.2233
rtoes -5.81468
lfemur -17.0395 -12.2714 22.0689
ltibia 129.466
lfoot -0.0675576 2.17835
ltoes 11.7895
140
root 3.30387 18.3049 -4.43962 -169.78 -36.4292 168.963
lowerback 0.43532 -5.73922 -16.0938
upperback 2.2696 -7.78467 -3.38077
thorax 3.80975 -4.3642 4.94784
lowerneck -26.5568 -0.381381 -5.18102
upperneck 48.113 -10.703 6.85355
head 32.3409 -5.9117 1.05738
rclavicle -6.61953e-014 -1.35174e-014
rhumerus -83.3967 5.18835 -31.6009
rradius 65.2677
rwrist 3.97767
rhand -4.72516 -4.2431
rfingers 7.12502
rthumb 21.0575 -33.1198
lclavicle -6.61953e-014 -1.35174e-014
lhumerus -22.8673 -39.5053 15.9651
lradius 90.7484
lwrist -17.5289
lhand -16.5573 3.13453
lfingers 7.12502
lthumb 9.66248 32.8929
rfemur -17.8664 13.0784 -6.03243
rtibia 4.6118e-014
rfoot 44.669 -22.666
rtoes -6.08768
lfemur -18.7701 -14.4959 22.4525
ltibia 131.218
lfoot -1.22889 3.33474
ltoes 10.5578
141
root 3.33586 18.0633 -4.74307 -169.462 -36.7924 168.528
lowerback 0.348626 -5.519 -16.2273
upperback 2.3254 -7.48071 -3.54338
thorax 3.84914 -4.22663 4.86147
lowerneck -26.6714 -0.648724 -5.37581
upperneck 48.0063 -10.8178 6.82828
head 32.245 -5.9365 1.0586
rclavicle 9.34288e-015 -6.75868e-014
rhumerus -84.3268 4.53926 -33.4127
rradius 66.5608
rwrist 4.02564
rhand -4.66964 -4.09893
rfingers 7.12502
rthumb 21.1108 -32.9697
lclavicle 9.34288e-015 -6.75868e-014
lhumerus -24.2109 -39.0572 17.1573
lradius 90.6951
lwrist -17.1702
lhand -16.5375 3.32457
lfingers 7.12502
lthumb 9.68163 33.0821
rfemur -16.8894 13.2101 -5.76604
rtibia -1.59028e-014
rfoot 45.7695 -23.0526
rtoes -3.69496
lfemur -20.6186 -16.791 22.7244
ltibia 132.872
lfoot -2.05421 4.58266
ltoes 9.32232
142
root 3.36792 17.8154 -5.03973 -169.136 -37.1711 168.129
lowerback 0.309724 -5.29869 -16.2864
upperback 2.3804 -7.18458 -3.68434
thorax 3.85605 -4.08858 4.76398
lowerneck -26.8165 -0.936264 -5.55959
upperneck 47.8703 -10.9077 6.77919
head 32.0749 -5.94115 1.05214
rclavicle -2.76311e-014 -4.53229e-014
rhumerus -84.9898 3.77073 -35.2635
rradius 67.7143
rwrist 4.02999
rhand -4.65642 -3.99001
rfingers 7.12502
rthumb 21.1235 -32.8593
lclavicle -2.76311e-014 -4.53229e-014
lhumerus -25.534 -38.5805 18.5806
lradius 90.6452
lwrist -16.9526
lhand -16.5863 3.50236
lfingers 7.12502
lthumb 9.63453 33.262
rfemur -19.8954 13.784 -5.49306
rtibia 7.85844
rfoot 41.1486 -26.9592
rtoes 0.497077
lfemur -22.5905 -19.1332 22.8925
ltibia 134.433
lfoot -2.47854 5.88606
ltoes 8.3439
143
root 3.40007 17.5623 -5.32806 -168.849 -37.5524 167.81
lowerback 0.330103 -5.07121 -16.2309
upperback 2.44055 -6.88889 -3.80523
thorax 3.82423 -3.945 4.63383
lowerneck -26.9531 -1.24518 -5.7253
upperneck 47.6629 -10.9912 6.72156
head 31.8322 -5.93356 1.04285
rclavicle -1.0297e-013 -4.77083e-015
rhumerus -85.3676 2.90081 -37.1835
rradius 68.7242
rwrist 3.93648
rhand -4.66147 -3.93963
rfingers 7.12502
rthumb 21.1186 -32.8095
lclavicle -1.0297e-013 -4.77083e-015
lhumerus -26.8012 -38.0903 20.2015
lradius 90.5695
lwrist -17.0001
lhand -16.6949 3.67722
lfingers 7.12502
lthumb 9.52977 33.4417
rfemur -21.6897 14.2111 -5.22698
rtibia 13.3802
rfoot 35.6151 -31.0811
rtoes 5.1769
lfemur -24.6815 -21.4464 23.0524
ltibia 135.903
lfoot -2.57418 7.17908
ltoes 7.71179
